<svg xmlns="http://www.w3.org/2000/svg" viewBox="0 0 195.81 93.42"><defs><style>.cls-1{isolation:isolate;}.cls-2{fill:#834b16;}.cls-3{fill:#763c10;}.cls-13,.cls-4,.cls-5{fill:#f8c89d;}.cls-5{opacity:0.49;}.cls-13,.cls-19,.cls-5,.cls-7{mix-blend-mode:multiply;}.cls-6{fill:#e96b85;}.cls-7{opacity:0.37;}.cls-8{fill:#e6a46d;}.cls-9{fill:#e59b60;}.cls-10{fill:#823a15;}.cls-11{fill:#fffdfd;}.cls-12,.cls-15{fill:#5c45a2;}.cls-12{opacity:0.1;}.cls-13{opacity:0.47;}.cls-14{fill:#da945b;}.cls-16{fill:#3c2899;}.cls-17{fill:#fff;}.cls-18{fill:#7a80bf;}.cls-19{opacity:0.29;}.cls-20{fill:#384da6;}.cls-21{fill:#323669;}</style></defs><title>jagajarak_1</title><g class="cls-1"><g id="Layer_2" data-name="Layer 2"><g id="PRINT"><path class="cls-2" d="M34.63,52.69c-.17-.07-.41-.16-.69-.29l-.33-.14-.38-.17-.42-.18-.44-.21c-.64-.29-1.35-.63-2.1-1-.33-.16-.66-.34-1-.53-.61-.32-1.23-.66-1.85-1-.19-.12-.4-.23-.59-.36a28.7,28.7,0,0,1-3.22-2.23c-.16-.12-.31-.25-.45-.37A12.28,12.28,0,0,1,21,43.81a6.64,6.64,0,0,0-.85-1,3.24,3.24,0,0,0-.38-.36.81.81,0,0,0-.14-.12c-.14-.13-.28-.23-.42-.34l0,0c-.22-.15-.44-.31-.67-.45l-.22-.13-.31-.17-.2-.1-.43-.19a2,2,0,0,0-.31-.13c-.17-.07-.34-.14-.5-.19a12.2,12.2,0,0,0-1.65-.43l-.13,0L14.23,40h-.05l-.43,0-.31,0-.86-.06h0a13.72,13.72,0,0,0-2,0l-.2,0-.22,0c-.3.06-.74.18-1.28.33A25.18,25.18,0,0,0,4.53,42c-.25.12-.5.26-.75.4l-.73.45c-1.67,1.09-3,2.52-3,4.34A5.52,5.52,0,0,0,4.78,53S.44,63,10.1,67.81A17.52,17.52,0,0,0,21.23,68.9a31.28,31.28,0,0,0,5.5-1.58c.75-.29,1.45-.59,2.09-.87l1.07-.5h0l.57-.28.39-.2,1-.53.64-.38,1.19-5.65L34.28,56l.23-1.08.45-2.1Z"/><path class="cls-3" d="M35,52.83,32.47,64.55s-1,.61-2.58,1.4C12.47,61.57,15.15,47.59,14.83,46.86s-6.05,2.51-9.49-.46a7,7,0,0,1-2.29-3.56,24.46,24.46,0,0,1,7.49-2.93S17.7,39,21,43.81,35,52.83,35,52.83Z"/><path class="cls-2" d="M73.49,47.18c-.07-1.82-1.38-3.25-3-4.34a19.58,19.58,0,0,0-4.28-2l-.65-.21c-.42-.14-.81-.25-1.15-.35-.55-.15-1-.25-1.21-.3l-.09,0h-.23l-.19,0H62.5a15.71,15.71,0,0,0-1.84,0l-.45,0h-.1l-.33,0a13.22,13.22,0,0,0-2.77.61c-.16,0-.32.12-.48.18a3.9,3.9,0,0,0-.47.2h0a7.3,7.3,0,0,0-1,.5l-.42.26a7.82,7.82,0,0,0-1,.76l-.33.32a7.68,7.68,0,0,0-.83,1,10.7,10.7,0,0,1-.69.89c-.14.16-.29.32-.44.47s-.27.27-.41.4c-.29.29-.61.56-1,.85l-.58.45-.73.54-.69.48c-.45.3-.91.59-1.37.87l-.6.36q-.88.52-1.77,1l-1.07.57-1.44.7-.32.15c-1.2.57-2.15,1-2.62,1.16l-.32.14L39,55.16l.2.93.63,3L41,64.55s1,.61,2.58,1.4a38.56,38.56,0,0,0,3.72,1.58c.53.2,1.09.38,1.67.56s.91.27,1.39.39,1.2.3,1.82.41a21.51,21.51,0,0,0,5.45.39,15.09,15.09,0,0,0,5.74-1.47C73.05,63,68.71,53,68.71,53A5.53,5.53,0,0,0,73.49,47.18Z"/><path class="cls-3" d="M38.53,52.83,41,64.55s1,.61,2.58,1.4C61,61.57,58.34,47.59,58.66,46.86s6.06,2.51,9.49-.46a7,7,0,0,0,2.29-3.56A24.46,24.46,0,0,0,63,39.91s-7.16-.87-10.41,3.9S38.53,52.83,38.53,52.83Z"/><path class="cls-4" d="M61.34,93.42h-44a72.56,72.56,0,0,1,2-20,18.09,18.09,0,0,1,1.88-4.57,14.66,14.66,0,0,1,4-4.52c.3-.23.61-.44.91-.63a15.79,15.79,0,0,1,2.56-1.33,18.85,18.85,0,0,1,1.9-.65,10.7,10.7,0,0,0,1.08-.3s0,0,0,0,.13-1.29.25-2.79c0-.23,0-.48.06-.74s0-.5,0-.76l.06-.67c0-.24,0-.48,0-.72,0-.43.06-.84.1-1.22s0-.53.05-.75a1.94,1.94,0,0,0,0-.24c0-.53.06-.87.06-.87H46.2s0,.74.13,1.79c0,.21,0,.45.05.69a1,1,0,0,0,0,.17c.05.8.12,1.69.19,2.55.14,1.83.28,3.47.31,3.56s.23.09.6.18,1.12.3,1.93.6l.51.21.3.12.25.12a4.38,4.38,0,0,1,.5.23,14.18,14.18,0,0,1,2,1.18,14.86,14.86,0,0,1,4.67,5.19,18.77,18.77,0,0,1,1.66,4.19A72.07,72.07,0,0,1,61.34,93.42Z"/><path class="cls-5" d="M46.59,57.89A32.22,32.22,0,0,1,32,58.66c.2-2.56.45-6,.45-6H46.2S46.4,55.46,46.59,57.89Z"/><path class="cls-5" d="M53,64.09,50.49,79.47l-21.81-.09s-1.78-10.85-2.5-15.63a16.44,16.44,0,0,1,4.46-2L31.55,77l16.75.25,1.13-15A15.29,15.29,0,0,1,53,64.09Z"/><path class="cls-6" d="M53.28,93.42H26a62.45,62.45,0,0,1,1.16-10.09L28.45,78l.6-2.47s-.14-5-.23-9l0-.8c0-1.29,0-2.43-.05-3.23,0-.63,0-1,0-1.12.1-.77,2.81-1.47,3-.23a3.74,3.74,0,0,1,0,.4c0,.6.07,1.65.1,2.93,0,.17,0,.35,0,.53.11,3.92.29,9.42.86,10.1s13.21.76,13.85,0c.45-.54.66-4.1.78-7.5,0-1,.06-1.94.08-2.81,0-.38,0-.74,0-1.09,0-.83,0-1.53.07-2,0-.26,0-.45,0-.56.16-1.24,2.87-.54,3,.23,0,.09,0,.61,0,1.38v.54c0,.19,0,.4,0,.62,0,1.31-.07,3-.1,4.64-.09,3.52-.19,7-.19,7l.57,2.32c.34,1.38.8,3.27,1.36,5.52A42.5,42.5,0,0,1,53,89.82C53.15,91.07,53.23,92.31,53.28,93.42Z"/><g class="cls-7"><path class="cls-6" d="M50.48,63.84c-.85-.07-1.88-.15-3-.21,0-1.28.07-2.25.1-2.56.16-1.24,2.87-.54,3,.23C50.52,61.44,50.5,62.43,50.48,63.84Z"/><path class="cls-6" d="M53.28,93.42H26a62.45,62.45,0,0,1,1.16-10.09L28.45,78l.6-2.47s-.14-5-.23-9l0-.8c0-1.29,0-2.43-.05-3.23,0-.63,0-1,0-1.12.1-.77,2.81-1.47,3-.23a3.74,3.74,0,0,1,0,.4c0,.6.07,1.65.1,2.93l-1,.23c-.34.08-.68.16-1,.26,0,.34.07.68.11,1a52,52,0,0,1,.28,9.83,9.8,9.8,0,0,0,.3,3.62c1.34,5.1,6.75,12,22.56,10.43C53.15,91.07,53.23,92.31,53.28,93.42Z"/></g><path class="cls-4" d="M17.92,31.13S13.31,27,8.65,29.59,6.51,46.37,19.57,41.82Z"/><path class="cls-8" d="M14.41,40.45H14.3c-2.71-.72-4.61-2-5.49-3.69a4.67,4.67,0,0,1-.19-3.86c.94-2.51,3.92-2.42,5.36-2a.45.45,0,0,1-.23.86c-.14,0-3.41-.9-4.3,1.48a3.83,3.83,0,0,0,.15,3.15c.76,1.46,2.46,2.58,4.92,3.23a.45.45,0,0,1,.32.54A.44.44,0,0,1,14.41,40.45Z"/><path class="cls-4" d="M57.57,31.13s4.61-4.17,9.27-1.54S69,46.37,55.92,41.82Z"/><path class="cls-8" d="M61.08,40.45h.11c2.71-.72,4.61-2,5.49-3.69a4.67,4.67,0,0,0,.19-3.86c-.94-2.51-3.91-2.42-5.36-2a.46.46,0,0,0-.31.55.45.45,0,0,0,.54.31c.15,0,3.41-.9,4.3,1.48a3.79,3.79,0,0,1-.15,3.15c-.76,1.46-2.46,2.58-4.92,3.23a.45.45,0,0,0-.32.54A.44.44,0,0,0,61.08,40.45Z"/><path class="cls-4" d="M60.17,33c0,12.26-2.15,22.2-21.78,22.2-15.18,0-21.77-9.94-21.77-22.2a26.29,26.29,0,0,1,.71-6C19.65,16.73,27.55,6.48,37.15,5.34h0c.37,0,.74-.07,1.12-.08a20.24,20.24,0,0,1,5.9.57c6.32,1.6,10.47,6.29,12.95,11.94A38.74,38.74,0,0,1,60.17,33Z"/><path class="cls-9" d="M37.34,23.78c-1.27.11.39,9-.94,8.55s-5.47-.67-4.22,2.85c1,2.85,6.57,2.82,6.67-1.73S38.74,23.65,37.34,23.78Z"/><path class="cls-10" d="M46.69,26.92c0,1.31-.69,2.37-1.48,2.35s-1.4-1.1-1.37-2.41.69-2.38,1.47-2.36S46.72,25.6,46.69,26.92Z"/><path class="cls-10" d="M49.72,23.61a5.64,5.64,0,0,0-4.09-1.19c-2.31.34-2.37.1-2.51-.6-.25-1.26-.48-3,.62-3.28s3.73,0,4.85,1.42S50.11,23.5,49.72,23.61Z"/><path class="cls-10" d="M29.66,27.2c.07,1.32.77,2.35,1.56,2.31s1.36-1.15,1.29-2.46S31.74,24.7,31,24.74,29.59,25.89,29.66,27.2Z"/><path class="cls-10" d="M26.52,24a5.62,5.62,0,0,1,4.05-1.32c2.32.25,2.37,0,2.49-.69.2-1.27.38-3-.73-3.25s-3.73.09-4.8,1.58S26.13,23.91,26.52,24Z"/><path class="cls-5" d="M57.66,32C52,27.62,49.23,13,48.57,12.37s-4.22,5.41-13,8.33-10.5,1.62-11.91,4-5.94,5.62-5.94,5.62L17.33,27C19.65,16.73,27.55,6.48,37.15,5.34h0c1.78.1,4.36.26,7,.49,6.32,1.6,10.47,6.29,12.95,11.94C57.73,24.46,57.66,32,57.66,32Z"/><path class="cls-2" d="M61.83,24.81c-.1,3.94-.79,7.58-2.74,8.35-3.22,1.24-8.85-21.52-9.37-23.6l0-.15S48.5,11.49,42,16.1s-17.17,4.62-17.17,4.62-2,3.3-3.79,6a15.55,15.55,0,0,1-1.76,2.32h0c-2,2.14-3.33,1.58-4.25.92-2.26-1.67-3-13.5-1-19.69S22.2,2.77,35.67,1.62c9.87-.85,15-.07,17.1.4a10,10,0,0,1,1.08.31S55.1-.52,56.19.08,56,3.43,56,3.43s1.92-2.35,3.33-1-2,4.33-2,4.33,3.38,4.94,4.05,10A52.81,52.81,0,0,1,61.83,24.81Z"/><path class="cls-3" d="M52.77,2a5,5,0,0,1-4.08,1C44.14,2.53,30.08,3,23.27,9.56c-5.47,5.29-4.68,15.73-4,19.5h0c-2,2.14-3.33,1.58-4.25.92-2.26-1.67-3-13.5-1-19.69S22.2,2.77,35.67,1.62C45.54.77,50.71,1.55,52.77,2Z"/><path class="cls-3" d="M61.83,24.81c-.1,3.94-.79,7.58-2.74,8.35-3.22,1.24-8.85-21.52-9.37-23.6.92-1.13,3.49,5.19,6.65,10.92A8.29,8.29,0,0,0,61.83,24.81Z"/><path class="cls-11" d="M57.87,46.26a21.2,21.2,0,0,1-2.53,3.79c-5,6-13.65,6.21-17.06,6-3.41.21-12,0-17.07-6a25.1,25.1,0,0,1-5.48-16.51c0-.38,8.08-.54,13.41-3,.1,0,.2-.09.3-.13,5.31-2.58,8.71-2.3,8.71-2.3h.24s3.4-.28,8.72,2.3,13.71,2.75,13.71,3.13A25.39,25.39,0,0,1,57.87,46.26Z"/><path class="cls-12" d="M57.87,46.26a21.2,21.2,0,0,1-2.53,3.79c-5,6-13.65,6.21-17.06,6-3.41.21-12,0-17.07-6a25.1,25.1,0,0,1-5.48-16.51c0-.38,8.08-.54,13.41-3C31.49,37.75,38.51,49.86,57.87,46.26Z"/><rect class="cls-4" x="159.8" y="53.55" width="13.83" height="14.61"/><path class="cls-13" d="M173.63,53.55v5.08c-5,2.54-10.72,1.91-13.83,1.26V53.55Z"/><path class="cls-4" d="M147.51,37.37s-4.25-4.91-8.36-1.54.29,14.9,10.42,8.88Z"/><path class="cls-14" d="M144.72,44.51a4.77,4.77,0,0,1-3.81-1.77A5.31,5.31,0,0,1,139.84,38a2.32,2.32,0,0,1,1.45-1.52c1.55-.54,3.51.65,3.59.7a.46.46,0,0,1-.48.78,4.05,4.05,0,0,0-2.81-.61,1.44,1.44,0,0,0-.88,1,4.34,4.34,0,0,0,.91,3.81,4,4,0,0,0,3.87,1.38.45.45,0,0,1,.52.39.46.46,0,0,1-.39.52A6.8,6.8,0,0,1,144.72,44.51Z"/><path class="cls-4" d="M185.91,37.37s4.26-4.91,8.37-1.54-.29,14.9-10.42,8.88Z"/><path class="cls-14" d="M188.7,44.51a4.79,4.79,0,0,0,3.82-1.77A5.31,5.31,0,0,0,193.59,38a2.34,2.34,0,0,0-1.45-1.52c-1.55-.54-3.51.65-3.6.7A.46.46,0,1,0,189,38a4.05,4.05,0,0,1,2.81-.61,1.44,1.44,0,0,1,.88,1,4.38,4.38,0,0,1-.92,3.81,4,4,0,0,1-3.86,1.38.45.45,0,0,0-.52.39.45.45,0,0,0,.38.52A7,7,0,0,0,188.7,44.51Z"/><path class="cls-4" d="M186.48,36.69a20.08,20.08,0,0,1-40.15,0c0-6.85.16-11.37,1-14.35a9.66,9.66,0,0,1,.55-1.55c2.12-4.7,7.1-4.17,18.53-4.17,6.94,0,11.79-.35,15,1.51a8.14,8.14,0,0,1,3.51,4.54C186,25.65,186.48,30.09,186.48,36.69Z"/><path class="cls-10" d="M159.47,32.81c0,1.14-.65,2.06-1.44,2.06s-1.43-.92-1.43-2.06.64-2.05,1.43-2.05S159.47,31.68,159.47,32.81Z"/><path class="cls-10" d="M153.93,30.33A5.66,5.66,0,0,1,158,29.15c2.31.34,2.37.1,2.51-.6.25-1.27.49-3-.62-3.28s-3.73,0-4.85,1.42S153.54,30.23,153.93,30.33Z"/><path class="cls-10" d="M173.73,32.81c0,1.14.64,2.06,1.43,2.06s1.44-.92,1.44-2.06-.64-2.05-1.44-2.05S173.73,31.68,173.73,32.81Z"/><path class="cls-10" d="M179.27,30.33a5.66,5.66,0,0,0-4.09-1.18c-2.32.34-2.38.1-2.51-.6-.25-1.27-.49-3,.61-3.28s3.73,0,4.85,1.42S179.65,30.23,179.27,30.33Z"/><path class="cls-13" d="M184.89,23.36a186.41,186.41,0,0,1-19.38.91c-12.79.13-17-.72-18.19-1.24-.36-.15-.45-.26-.44-.32l1-1.23,1.88-2.33,31.63-.32A8.08,8.08,0,0,1,184.89,23.36Z"/><path class="cls-15" d="M186.89,36.78c-2-.09-3.43-15-3.43-15l-17.25.41a139.93,139.93,0,0,1-17.12-.41s-.94,10.19-2.43,13.79c-.31.76-.64,1.22-1,1.24-1.6.07-1.18-21.12-.56-22.79s8.11-3.43,19.29-3.43h3.77c11.41,0,17.91,1.76,18.54,3.43a5.77,5.77,0,0,1,.19,1C187.53,19.68,188.34,36.84,186.89,36.78Z"/><path class="cls-16" d="M186.89,15c-10.69-2-38.31-.82-39,1.46-.62,2-1.15,14.22-1.21,19.05-.31.76-.64,1.22-1,1.24-1.6.07-1.18-21.12-.56-22.79s8.11-3.43,19.29-3.43h3.77c11.41,0,17.91,1.76,18.54,3.43A5.77,5.77,0,0,1,186.89,15Z"/><path class="cls-17" d="M187.6,41.06a22.08,22.08,0,0,1-5.14,10.42c-5.34,5.84-12.78,6.57-15.68,6.57-4.13,0-17.42-1.48-20.83-17,0,0,13.1-6.44,18.75-7.92a7.26,7.26,0,0,1,1.78-.3h.92C171,32.84,187.6,41.06,187.6,41.06Z"/><path class="cls-12" d="M182.46,51.48c-5.34,5.84-12.78,6.57-15.68,6.57-4.13,0-17.42-1.48-20.83-17,0,0,13.1-6.44,18.75-7.92-2,3.64-5,10.87-2,17.47C165.43,56.48,174.89,54.72,182.46,51.48Z"/><path class="cls-18" d="M195.65,93.42H138.14c.56-24.45,21.1-30.85,21.56-30.85a.16.16,0,0,1,.1,0,9.07,9.07,0,0,0,6.65,2.82,9.81,9.81,0,0,0,7.18-2.56c.21-.18.36-.3.45-.3a8.27,8.27,0,0,1,1.35.43C180.09,64.8,195.17,72.52,195.65,93.42Z"/><g class="cls-19"><path class="cls-18" d="M175.43,63a6.82,6.82,0,0,1-1.8,2,11.41,11.41,0,0,1-6.92,2.21,29.49,29.49,0,0,0-6.77.91c-5.39,1.46-10.4,5.16-13.59,14.43a30.28,30.28,0,0,0-1.79,10.83h-6.42c.56-24.45,21.1-30.85,21.56-30.85a.16.16,0,0,1,.1,0,9.07,9.07,0,0,0,6.65,2.82,9.81,9.81,0,0,0,7.18-2.56c.21-.18.36-.3.45-.3A8.27,8.27,0,0,1,175.43,63Z"/><path class="cls-18" d="M181.35,93.42h-29.3L152.32,82a4.64,4.64,0,0,0,.42.77c1.48,2.25,7.51,8.54,28,6.13l.34,0Z"/></g><path class="cls-20" d="M152.75,82.44v.29l-.35,10.69h-.89l.35-11a.46.46,0,0,1,.47-.45A.46.46,0,0,1,152.75,82.44Z"/><path class="cls-20" d="M181.81,93.42h-.9l-.14-4.56-.21-6.42A.45.45,0,0,1,181,82a.47.47,0,0,1,.46.45Z"/><rect class="cls-21" x="80.53" y="72.97" width="50.05" height="1.24"/><path class="cls-21" d="M78.92,73.66a.59.59,0,0,1,0-.65l1.53-1.78L82,69.46c.12-.15.28,0,.28.32v7.1c0,.29-.16.47-.28.33l-1.54-1.78Z"/><path class="cls-21" d="M132.2,73.66a.63.63,0,0,0,0-.65l-1.54-1.78-1.54-1.77c-.12-.15-.28,0-.28.32v7.1c0,.29.16.47.28.33l1.54-1.78Z"/></g></g></g></svg>