<svg xmlns="http://www.w3.org/2000/svg" viewBox="0 0 77.05 97.78"><defs><style>.cls-1{isolation:isolate;}.cls-2,.cls-3{fill:#f8c89d;}.cls-3{opacity:0.43;mix-blend-mode:multiply;}.cls-4{fill:#eba872;}.cls-5{fill:#874217;}.cls-6{fill:#dd9052;}.cls-7{fill:#010001;}.cls-8{fill:#fffdfd;}.cls-9{fill:#5c45a2;opacity:0.1;}.cls-10{fill:#b77ab7;}.cls-11{fill:#a063ad;}</style></defs><title>masker</title><g class="cls-1"><g id="Layer_2" data-name="Layer 2"><g id="PRINT"><rect class="cls-2" x="27.75" y="60.64" width="19.11" height="15.81"/><path class="cls-3" d="M46.85,60.64v6.83a23,23,0,0,1-19.1.15v-7Z"/><path class="cls-2" d="M11.7,37.4a6,6,0,0,0-9.11,1c-4.37,5.34,2.19,16.55,13.07,12.3Z"/><path class="cls-4" d="M10.45,49.61h-.07c-2.33-.3-6.75-1.91-6.79-5.87,0-5,3.64-5.29,3.67-5.29a.53.53,0,0,1,.58.51.54.54,0,0,1-.5.58h0c-.11,0-2.69.26-2.65,4.19s5.78,4.79,5.83,4.8a.55.55,0,0,1-.07,1.09Z"/><path class="cls-2" d="M63.62,37.4a6,6,0,0,1,9.1,1c4.37,5.34-2.18,16.55-13.06,12.3Z"/><path class="cls-4" d="M64.86,49.61h.07c2.34-.3,6.76-1.91,6.79-5.87,0-5-3.63-5.29-3.67-5.29a.54.54,0,0,0-.58.51.55.55,0,0,0,.51.58h0c.11,0,2.68.26,2.65,4.19s-5.78,4.79-5.84,4.8a.54.54,0,0,0-.47.61A.55.55,0,0,0,64.86,49.61Z"/><path class="cls-2" d="M64.37,37.88a26.56,26.56,0,1,1-53.12,0c0-7.12,1.13-12.39,3.14-16.27,4.48-8.7,13.28-10.48,23.42-10.48,11,0,20.45,1.3,24.48,12.27C63.63,27.06,64.37,31.78,64.37,37.88Z"/><ellipse class="cls-5" cx="29.18" cy="33.07" rx="1.83" ry="3.11"/><path class="cls-5" d="M31.73,28.78c-.79.2-2.19-1.31-4.81.16s-3.18,2.08-3,.77A6.18,6.18,0,0,1,28,25.3c1.93-.64,3.37-.62,3.72.18C32.19,26.48,32.17,28.67,31.73,28.78Z"/><path class="cls-5" d="M45.06,33.07c0,1.72.82,3.11,1.83,3.11s1.83-1.39,1.83-3.11S47.9,30,46.89,30,45.06,31.35,45.06,33.07Z"/><path class="cls-5" d="M44.34,28.78c.79.2,2.19-1.31,4.81.16s3.17,2.08,3,.77A6.18,6.18,0,0,0,48,25.3c-1.93-.64-3.37-.62-3.72.18C43.88,26.48,43.9,28.67,44.34,28.78Z"/><path class="cls-6" d="M38.1,36.66a.55.55,0,0,1-.55-.54l0-6.2a.55.55,0,0,1,.55-.55h0a.55.55,0,0,1,.55.54l0,6.2a.53.53,0,0,1-.54.55Z"/><path class="cls-3" d="M62.29,23.4A42.59,42.59,0,0,1,42.07,18c-.58-.23-2,4.74-12.25,5.89s-15.15-1-15.15-1l-.28-1.22c4.48-8.7,13.28-10.48,23.42-10.48C48.81,11.13,58.26,12.43,62.29,23.4Z"/><path class="cls-7" d="M59.53,19.47s3.18,20.23,6.65,19,.15-19.32.15-19.32Z"/><path class="cls-7" d="M9.54,37.53c1.63-.11,4.78.38,6.91-3.51s-.56-12,.07-11.94S26.94,24,34,21.07s7-5.71,7-5.71,4.27,4.58,18.22,6,23-8.86,14.39-16.52S30.52-.6,20,5.87c0,0-4.27-2.83-6.47-.38s.31,3.58.31,3.58-6.4.76-7.16,4.72S9.1,20.57,9.1,20.57,2.07,38,9.54,37.53Z"/><path class="cls-8" d="M65.91,39.53c-.54,9.38-4,15.46-8.4,19.38C50.39,65.32,41,66,38.16,66c-4.51.09-26.33-1.77-27.73-26.42-.06-.88,7.65.66,15.5-.57,1.16-.19,2.23-.39,3.21-.62,4.44-1.07,7-2.46,8.79-2.53a3.53,3.53,0,0,1,.46,0c2.16.1,5.54,2.14,12,3.15C58.24,40.19,66,38.65,65.91,39.53Z"/><path class="cls-9" d="M57.51,58.91C50.39,65.32,41,66,38.16,66c-4.51.09-26.33-1.77-27.73-26.42-.06-.88,7.65.66,15.5-.57,1.16-.19,2.23-.39,3.21-.62C30.78,46.15,36.74,60.44,57.51,58.91Z"/><path class="cls-10" d="M75,97.78H0c.53-2.13,2.72-8.93,10.47-15.41C19,75.2,26.55,73.2,27.75,72.9l.16,0s1.84,2.9,8.55,2.85h.71c6.63-.06,9-1.92,9.68-2.6a1.62,1.62,0,0,0,.21-.24s.6.13,1.68.47a48.12,48.12,0,0,1,15.76,9C72.27,88.85,74.46,95.65,75,97.78Z"/><path class="cls-11" d="M48.74,73.34a5.69,5.69,0,0,1-1.89,1.88,10,10,0,0,1-2.73,1.23,22,22,0,0,1-5.31.82c-8.32.4-14,13.88-16.35,20.51H0c.53-2.13,2.72-8.93,10.47-15.41C19,75.2,26.55,73.2,27.75,72.9l.16,0s1.84,2.9,8.55,2.85h.71c6.63-.06,9-1.92,9.68-2.6a1.62,1.62,0,0,0,.21-.24S47.66,73,48.74,73.34Z"/></g></g></g></svg>