<svg xmlns="http://www.w3.org/2000/svg" viewBox="0 0 98.55 85.23"><defs><style>.cls-1{isolation:isolate;}.cls-2{fill:#fffdfd;}.cls-3,.cls-4{fill:#7a80bf;}.cls-4{opacity:0.32;mix-blend-mode:multiply;}.cls-5{fill:#5c45a2;}.cls-6{fill:#372192;}.cls-7{opacity:0.39;mix-blend-mode:screen;}.cls-8{fill:#f2bb8d;}.cls-9{fill:#f8c89d;}</style></defs><title>mencucitangan_1</title><g class="cls-1"><g id="Layer_2" data-name="Layer 2"><g id="PRINT"><path class="cls-2" d="M56.53,39.67V77.74c0,8-2.75,7.48-7.26,7.48h-42c-4.5,0-7.25.54-7.25-7.48V39.67c0-5.39.66-6.37,4.5-10.12S17,18.12,17,18.12H39.48l1.87,1.66q.18.15.36.33C44.55,22.65,49.4,27,52,29.55,55.87,33.3,56.53,34.28,56.53,39.67Z"/><path class="cls-3" d="M56.53,42.45V68.88A130.24,130.24,0,0,1,42.92,71.1h0a127.74,127.74,0,0,1-20.7.61c-1.64-.08-3.32-.2-5-.37A110.71,110.71,0,0,1,0,68.34V43c4.18.52,10.43,1.13,18.13,1.41,2.08.07,4.26.12,6.53.13A217.08,217.08,0,0,0,56.53,42.45Z"/><circle class="cls-2" cx="29.06" cy="57.75" r="11.08" transform="translate(-33.82 72.76) rotate(-76.72)"/><polygon class="cls-3" points="35.85 55.4 35.85 60.13 31.06 60.13 31.06 64.91 26.33 64.91 26.33 60.13 21.55 60.13 21.55 55.4 26.33 55.4 26.33 50.61 31.06 50.61 31.06 55.4 35.85 55.4"/><path class="cls-4" d="M41.35,19.78c-1,.53-3.12,1-7.31.74C25.08,20,17.72,33.65,16.93,57a133.5,133.5,0,0,0,1.95,28.23H7.25c-4.5,0-7.25.54-7.25-7.48V39.67c0-5.39.66-6.37,4.5-10.12S17,18.12,17,18.12H39.48Z"/><path class="cls-5" d="M61.72,0V3.07H58.13V7.38h-4.6V3.07H28.76V10c0-.22-2.92.36-2.92.36V0Z"/><path class="cls-6" d="M28.76,4.54V10c0-.22-2.92.36-2.92.36V4.71A17.46,17.46,0,0,1,28.76,4.54Z"/><rect class="cls-5" x="15.75" y="11.9" width="23.82" height="6.58" rx="1.05"/><rect class="cls-5" x="22.59" y="6.86" width="10.16" height="8.4" rx="2.21"/><g class="cls-7"><path class="cls-3" d="M56.53,39.67V65.51A23.77,23.77,0,0,1,37.9,64.42a23.26,23.26,0,0,1-6-4.29,23.67,23.67,0,0,1-7.2-15.64c0-.48,0-1,0-1.48a23.89,23.89,0,0,1,17.09-22.9C44.55,22.65,49.4,27,52,29.55,55.87,33.3,56.53,34.28,56.53,39.67Z"/><path class="cls-3" d="M44.6,77.2a11.84,11.84,0,0,1-3.13,8H24A11.87,11.87,0,1,1,42.9,71.1h0A11.9,11.9,0,0,1,44.6,77.2Z"/></g><path class="cls-8" d="M72.65,67.1c-1.58-3.56-14.91-28.36-10.49-30.67S70.4,42.9,70.4,42.9,66.32,33,70.1,31.71s7.89,8,7.89,8-3-11.07.09-11.87S86.7,41.27,86.7,41.27s1.92-7.16,4.45-6.07-.46,9.48,3.33,16.48,5.14,8.1,3.16,11.7S76.21,75.1,72.65,67.1Z"/><path class="cls-5" d="M89.29,60.33C86.76,64.58,81.36,67,72.84,65c0,0-18.89,4.41-23.76-7.47-.15-.37-8.3-3.34-6.15-11,1.81-6.45,11.6-4.74,11.6-4.74s-1.68-10.27,7.24-11.18a2.22,2.22,0,0,1,.37,0c9.32-.67,8.42,10.9,8.42,10.9s9-9.39,16.72,1.22C91.37,48.39,92.17,55.53,89.29,60.33Z"/><path class="cls-6" d="M89.29,60.33C86.76,64.58,81.36,67,72.84,65c0,0-18.89,4.41-23.76-7.47-.15-.37-8.3-3.34-6.15-11,1.81-6.45,11.6-4.74,11.6-4.74s-1.68-10.27,7.24-11.18c-1.44,2.56-2.74,6.12-2,9.39,1.41,5.78,7.06,9,11.31,6.76C76,44.22,87.55,48.48,89.29,60.33Z"/><path class="cls-9" d="M63.61,82.12c-2.39-3.07-21.26-24-17.52-27.26s9.54,4.3,9.54,4.3-6.33-8.67-3-10.79,9.57,5.86,9.57,5.86-5.61-10-2.76-11.54,11.59,11,11.59,11,.16-7.41,2.87-7S75.76,56,81.12,61.93,88,68.57,87,72.54,69,89,63.61,82.12Z"/></g></g></g></svg>