<svg id="Layer_1" data-name="Layer 1" xmlns="http://www.w3.org/2000/svg" xmlns:xlink="http://www.w3.org/1999/xlink" viewBox="0 0 1457 914"><defs><style>.cls-1{fill:url(#linear-gradient);}.cls-2{font-size:77.23px;fill:#1c76f9;font-family:Poppins-SemiBold, Poppins;font-weight:600;}.cls-3{font-size:38.94px;fill:#1c1c1c;font-family:Poppins-Regular, Poppins;}.cls-4{opacity:0.52;font-size:158.32px;fill:#b2b2b2;font-family:Gotham-Light, Gotham;font-weight:300;}.cls-5{letter-spacing:-0.03em;}.cls-6{letter-spacing:-0.09em;}.cls-7{letter-spacing:-0.02em;}.cls-8{letter-spacing:-0.02em;}</style><linearGradient id="linear-gradient" x1="412.74" y1="544.05" x2="412.74" y2="313.11" gradientUnits="userSpaceOnUse"><stop offset="0.14" stop-color="#007df9"/><stop offset="0.88" stop-color="#9af255"/></linearGradient></defs><title>p3 copy</title><path class="cls-1" d="M420.8,428.82c.28.39.57.78.85,1.18,11.15,15.48,23,37.85,16.25,56.44l-.46,1.26-.34,1.3a26.21,26.21,0,0,1-51.55-6.71,25.82,25.82,0,0,1,2.72-11.63l0-.05,0,0c.16-.32.33-.65.52-1,1.61-2.25,5-6.26,6.51-8.08.76-.92,1.56-1.86,2.37-2.83,7.21-8.58,15.74-18.72,23.09-29.85M407.42,372.5c8.3,21.21-18.36,51.32-34.32,70.38a139.67,139.67,0,0,0-8.79,11.19l-.07.1c-.68,1.15-1.32,2.33-1.92,3.53a55.21,55.21,0,1,0,102.83,38.66c21.76-59.75-57.73-123.86-57.73-123.86Z"/><text class="cls-2" transform="translate(486.35 455.24)">east midlands gas</text><text class="cls-3" transform="translate(485.88 504.73)">plumbing &amp; heating experts</text><text class="cls-4" transform="translate(341.14 491.57)">fi<tspan class="cls-5" x="96.73" y="0">v</tspan><tspan x="184.12" y="0">er</tspan><tspan class="cls-6" x="339.9" y="0">r</tspan><tspan class="cls-7" x="388.98" y="0">.</tspan><tspan class="cls-8" x="422.22" y="0">c</tspan><tspan x="510.25" y="0">om</tspan></text></svg>