<svg id="Layer_1" data-name="Layer 1" xmlns="http://www.w3.org/2000/svg" viewBox="0 0 294.06 124.42"><defs><style>.cls-1{fill:#231f20;}</style></defs><title>divider-love</title><path class="cls-1" d="M291.16,83.9c-2.16-3.77-8-.38-5.83,3.4,7.95,13.87-8.58,27.11-20.72,29.71a32,32,0,0,1-32.67-12.74,24.68,24.68,0,0,0,5.41-12.94c.5-5.42-1.31-14.26-7-16.63-5.43-2.24-9.21,2.78-10.45,7.49-1.82,7,.18,14.41,3.32,20.68l.37.71c-9.44,8.83-26,13.1-37.47,13.2a93.23,93.23,0,0,1-31.6-5.57,88.41,88.41,0,0,0,13.68-9.74c14.73-12.69,26.57-28.32,37.57-44.24,8.27-12,10.81-30.46,2-42.9C192.22-7.59,158.58.6,145.28,20.48c-6.48-10-16.1-18.07-28.25-20C105.86-1.39,94.4,2.61,87.53,11.78,78.79,23.47,78.83,41.42,86,53.87c9.18,15.88,22.35,31.53,35.76,44a99.8,99.8,0,0,0,17.61,13.22,99.64,99.64,0,0,1-15.46,4.06c-15.7,2.87-30.4,1.15-44.78-6.07a41.55,41.55,0,0,1-8.6-5.58,35,35,0,0,0,4.24-14c.35-5.12-1.23-12.83-6.79-14.73C61.6,72.55,58.07,80,57,85.05c-1.46,6.91.86,13.87,5.11,19.32a32.85,32.85,0,0,1-25.74,13.37C22.53,117.78-.9,104,8.68,87.3c2.16-3.77-3.67-7.18-5.83-3.4C-5.89,99.13,7,115.68,21.09,121.46a38.92,38.92,0,0,0,44.57-10.79c.39-.46.76-1,1.13-1.44,13.73,12,35.33,15.74,52.62,13.39A99.23,99.23,0,0,0,147,115a91.44,91.44,0,0,0,22.26,6.78c19.17,3.36,39.52.69,55.72-10.92.74-.53,1.46-1.1,2.16-1.69a39.12,39.12,0,0,0,41.19,13.86C284.29,118.7,300.91,100.91,291.16,83.9Zm-227.39,9c-.38-1.56-1.15-9.47,1.38-10.74,3.22-1.62,2.95,6.8,2.75,8.26a29.08,29.08,0,0,1-2.08,7.46A17.54,17.54,0,0,1,63.77,92.93Zm53.77-9a236.32,236.32,0,0,1-24.75-32c-6.21-9.71-7.27-24.07-1.22-34.12C96.64,9.4,106.33,5.48,115.91,7,127.72,9,136.38,17.79,141.84,27.92a2.53,2.53,0,0,0,1.07,1.82,3.22,3.22,0,0,0,4.83-.28l0-.05h0a3.64,3.64,0,0,0,.79-1.19c6.85-16.5,28.84-24.93,45-17.13,9.45,4.54,13.25,14,12.66,24.1-.8,13.8-10,24.26-18.09,34.77a172.94,172.94,0,0,1-29.07,30.28,64.84,64.84,0,0,1-12.4,7.77C135.5,102.54,125.89,93.08,117.54,84Zm108.65.73c.85-3.95,2.53-3.7,3.87.45s.41,8.72-1.77,12.55l-.06.1C226.41,93.7,225.26,89,226.19,84.71Z"/></svg>